# xmcd
#
# Track frame offsets: 
#        182
#        15950
#        35637
#        53877
#        68692
#        85862
#        102852
#        117707
#        132927
#        155505
#        171712
#        189577
#        201757
#        221762
#
# Disc length: 3178 seconds
#
# Revision: 1
# Processed by: cddbd v1.5.2PL0 Copyright (c) Steve Scherf et al.
# Submitted via: ExactAudioCopy v0.99pb5
#
DISCID=ca0c680e
DTITLE=Andreas - Jetzt will ich leben
DYEAR=1999
DGENRE=
TTITLE0=Jetzt will ich leben
TTITLE1=Komm zurück
TTITLE2=Joana
TTITLE3=Innamorato
TTITLE4=Sara
TTITLE5=Luna
TTITLE6=Amore per Sempre
TTITLE7=Nur ein Gefühl (Duett mit Petra Frey)
TTITLE8=Maria Rosa come stai
TTITLE9=Ci sei tu
TTITLE10=Herz aus Glas
TTITLE11=Ti Amo (heisst nicht vielleicht)
TTITLE12=L'ultima notte con te
TTITLE13=Wahre Freunde sterben nicht
EXTD=
EXTT0=
EXTT1=
EXTT2=
EXTT3=
EXTT4=
EXTT5=
EXTT6=
EXTT7=
EXTT8=
EXTT9=
EXTT10=
EXTT11=
EXTT12=
EXTT13=
PLAYORDER=
